# xmcd
#
# Track frame offsets: 
#        150
#        9724
#        20726
#        29575
#        38889
#        47963
#        55769
#        64512
#        75956
#        85488
#        93520
#        103831
#        116222
#        125954
#        135899
#        146725
#
# Disc length: 2097 seconds
#
# Revision: 0
# Processed by: cddbd v1.5.2PL0 Copyright (c) Steve Scherf et al.
# Submitted via: ExactAudioCopy v0.95b4
#
DISCID=e2082f10
DTITLE=Domino, Fats - Fantastic Fats
DYEAR=1900
DGENRE=Blues
TTITLE0=There goes my heart again
TTITLE1=Red sails in the sunset
TTITLE2=Sally was a good old girl
TTITLE3=The girl I'm gonna marry
TTITLE4=When I'm walking (let me walk)
TTITLE5=On a slow boat to China
TTITLE6=Reelin' and rockin'
TTITLE7=Goodnight sweetheart
TTITLE8=Mary, oh Mary
TTITLE9=For you
TTITLE10=Song for Rosemary
TTITLE11=Heartbreak Hotel
TTITLE12=Let me call you sweetheart
TTITLE13=Kansas city
TTITLE14=O don't want to set the world on fire
TTITLE15=The fat man
EXTD=
EXTT0=
EXTT1=
EXTT2=
EXTT3=
EXTT4=
EXTT5=
EXTT6=
EXTT7=
EXTT8=
EXTT9=
EXTT10=
EXTT11=
EXTT12=
EXTT13=
EXTT14=
EXTT15=
PLAYORDER=
